<?xml version="1.0" standalone="no"?>
<!DOCTYPE svg PUBLIC "-//W3C//DTD SVG 20010904//EN"
 "http://www.w3.org/TR/2001/REC-SVG-20010904/DTD/svg10.dtd">
<svg version="1.0" xmlns="http://www.w3.org/2000/svg"
 width="384.000000pt" height="384.000000pt" viewBox="0 0 384.000000 384.000000"
 preserveAspectRatio="xMidYMid meet">
<metadata>
Created by potrace 1.11, written by Peter Selinger 2001-2013
</metadata>
<g transform="translate(0.000000,384.000000) scale(0.100000,-0.100000)"
fill="#000000" stroke="none">
<path d="M1491 3674 c-137 -23 -331 -72 -399 -98 -83 -33 -257 -125 -335 -178
-160 -108 -330 -279 -425 -426 -142 -220 -266 -549 -303 -802 -7 -47 -15 -89
-19 -95 -8 -12 -5 -123 4 -132 3 -3 6 0 6 8 0 8 7 71 15 139 70 567 325 1022
727 1297 202 138 393 214 668 265 97 18 154 22 365 22 138 0 276 -5 308 -10
31 -6 57 -8 57 -4 0 15 -77 20 -330 25 -196 3 -274 1 -339 -11z"/>
<path d="M1668 3641 c-31 -3 -59 -8 -62 -11 -8 -8 32 -90 44 -90 5 0 10 6 10
13 0 7 15 12 41 13 l42 0 -34 -14 c-19 -8 -41 -18 -49 -23 -8 -5 -33 -18 -55
-30 -82 -45 -202 -129 -268 -189 -72 -66 -192 -219 -246 -313 -18 -31 -37 -57
-41 -57 -5 0 -19 23 -31 50 -23 55 -78 110 -109 110 -34 0 -45 -69 -26 -164
15 -73 15 -84 -1 -132 -18 -58 -13 -83 17 -91 23 -6 21 -20 -11 -88 -24 -51
-82 -272 -75 -288 2 -7 5 -2 5 11 1 12 6 22 11 22 6 0 10 6 9 13 -1 6 -1 26 0
42 1 26 3 27 12 12 7 -12 7 -34 0 -70 -21 -109 -31 -280 -31 -550 0 -270 -1
-279 -21 -296 -34 -27 -51 -121 -39 -216 6 -44 14 -96 20 -115 13 -46 13 -143
0 -135 -5 3 -11 -4 -11 -17 -1 -17 -3 -18 -6 -6 -5 22 -41 24 -49 3 -4 -9 -19
-15 -37 -15 -24 0 -28 -3 -19 -12 7 -7 12 -25 12 -40 0 -22 -6 -31 -26 -38
-31 -12 -51 0 -56 32 -2 12 -8 23 -14 25 -7 2 -10 -7 -8 -24 2 -15 1 -22 -2
-15 -18 39 -103 -27 -95 -75 1 -7 -7 -33 -19 -57 -11 -25 -17 -52 -14 -61 5
-11 0 -18 -15 -22 -21 -5 -30 -23 -11 -23 18 0 41 -48 45 -97 6 -59 -3 -106
-17 -97 -8 5 -9 -8 -3 -42 4 -27 7 -76 6 -109 -2 -53 1 -63 23 -84 22 -21 26
-34 27 -85 1 -34 4 -72 8 -86 5 -16 3 -31 -5 -41 -8 -8 -15 -26 -16 -40 l-3
-24 172 -3 171 -2 -20 37 c-18 34 -19 51 -14 157 6 135 20 170 29 74 9 -90 24
-134 58 -172 34 -40 74 -50 159 -40 l59 6 -39 52 c-99 131 -145 320 -157 641
-4 99 -10 167 -13 150 -3 -16 -9 51 -13 150 -4 99 -14 270 -22 380 -41 560 7
1043 128 1309 29 62 57 75 57 27 0 -45 17 -81 38 -81 11 0 38 21 62 46 43 47
69 98 110 217 22 61 22 69 8 83 -24 24 -69 10 -124 -39 -53 -46 -52 -45 19 63
116 174 230 287 388 384 123 75 310 139 284 96 -13 -21 16 -9 38 16 12 14 31
30 42 35 15 7 12 8 -12 3 -25 -4 -34 -1 -47 17 -8 12 -13 26 -10 31 6 9 -69 8
-158 -1z m-744 -573 c-4 -7 -3 -8 5 -4 16 10 37 -9 68 -61 26 -44 26 -44 7
-84 -17 -40 -18 -40 -30 -17 -7 13 -21 48 -30 78 -10 30 -24 65 -32 78 -13 20
-12 22 2 22 11 0 14 -5 10 -12z m316 -61 c-1 -27 -13 -43 -68 -86 -35 -27 -42
-38 -38 -57 3 -12 3 -29 0 -38 -8 -21 -54 46 -54 79 0 32 55 94 104 116 45 20
56 17 56 -14z m-180 -112 c0 -21 -17 -35 -41 -35 -15 0 -10 37 7 54 20 20 34
12 34 -19z m-73 -67 c-3 -8 -6 -5 -6 6 -1 11 2 17 5 13 3 -3 4 -12 1 -19z
m-26 -11 c-10 -9 -11 -8 -5 6 3 10 9 15 12 12 3 -3 0 -11 -7 -18z m-74 -279
c-3 -8 -6 -5 -6 6 -1 11 2 17 5 13 3 -3 4 -12 1 -19z m-10 -40 c-3 -8 -6 -5
-6 6 -1 11 2 17 5 13 3 -3 4 -12 1 -19z m-9 -39 c-3 -8 -7 -3 -11 10 -4 17 -3
21 5 13 5 -5 8 -16 6 -23z m-38 -974 c0 -14 -9 -44 -21 -67 -15 -29 -19 -52
-15 -82 3 -22 5 -45 5 -49 1 -5 6 -5 13 -1 7 4 8 3 4 -5 -4 -6 0 -26 9 -44 10
-18 19 -64 21 -107 l4 -75 -26 65 c-51 127 -66 291 -33 364 16 33 39 34 39 1z
m-4 -91 c-4 -9 -9 -15 -11 -12 -3 3 -3 13 1 22 4 9 9 15 11 12 3 -3 3 -13 -1
-22z m11 -121 c-3 -10 -5 -2 -5 17 0 19 2 27 5 18 2 -10 2 -26 0 -35z m-87
-237 c0 -11 -19 -15 -25 -6 -3 5 1 10 9 10 9 0 16 -2 16 -4z"/>
<path d="M1906 3632 c-10 -16 2 -19 104 -21 52 -1 135 -9 183 -18 l88 -15 -26
-28 c-17 -17 -24 -33 -20 -41 5 -8 4 -10 -4 -5 -6 4 -18 0 -27 -8 -20 -21 -2
-20 38 0 17 9 46 14 64 12 19 -2 36 1 38 7 2 5 5 2 5 -8 1 -23 21 -12 21 11 0
9 -6 25 -14 34 -12 16 -16 15 -60 -8 -66 -35 -69 -23 -5 20 33 22 47 37 38 40
-78 24 -411 46 -423 28z"/>
<path d="M2483 3603 c9 -2 23 -2 30 0 6 3 -1 5 -18 5 -16 0 -22 -2 -12 -5z"/>
<path d="M2450 3561 c0 -6 11 -22 23 -37 26 -30 48 -26 40 6 -5 18 -3 19 21
10 15 -5 33 -10 39 -9 16 1 -60 28 -95 34 -16 3 -28 1 -28 -4z m50 -43 c0 -5
-7 -3 -15 6 -8 8 -15 18 -15 22 0 3 7 1 15 -6 8 -7 15 -17 15 -22z"/>
<path d="M2413 3548 c-4 -7 -6 -20 -5 -29 2 -9 -8 -21 -20 -28 -13 -6 -15 -9
-6 -7 9 3 19 0 22 -7 2 -7 5 -4 5 6 1 9 5 17 11 17 5 0 7 8 4 18 -4 9 5 4 20
-13 l27 -30 -21 43 c-22 46 -25 48 -37 30z"/>
<path d="M2435 3470 c3 -5 8 -10 11 -10 2 0 4 5 4 10 0 6 -5 10 -11 10 -5 0
-7 -4 -4 -10z"/>
<path d="M2362 3165 c-3 -133 -46 -382 -87 -510 -6 -17 -5 -18 4 -3 39 60 94
375 88 513 l-3 90 -2 -90z"/>
<path d="M1782 3113 c-53 -88 -130 -252 -176 -376 -57 -151 -161 -605 -144
-622 3 -3 12 24 21 59 40 162 160 442 264 615 57 95 61 104 26 62 -62 -74
-205 -365 -249 -503 -10 -32 -19 -56 -21 -54 -6 5 36 174 77 312 47 156 109
308 190 461 32 62 58 113 56 113 -2 0 -22 -30 -44 -67z"/>
<path d="M3469 2883 c22 -41 38 -56 45 -44 5 7 5 23 2 37 -5 17 -13 24 -32 24
-21 0 -23 -3 -15 -17z"/>
<path d="M232 2707 c-63 -146 -85 -211 -117 -337 -66 -262 -90 -560 -65 -811
12 -121 17 -139 34 -139 7 0 25 -11 40 -25 l26 -24 1 22 c0 15 2 17 6 7 10
-25 37 -40 63 -35 14 2 19 2 12 -1 -19 -9 -14 -24 8 -24 13 0 20 -7 20 -19 0
-11 9 -26 20 -34 l20 -14 -20 -18 c-11 -10 -20 -23 -20 -28 0 -6 9 -2 19 7 24
22 61 6 61 -27 1 -15 5 -10 15 17 8 22 12 51 11 65 -2 14 -1 18 1 9 2 -10 8
-18 12 -18 5 0 11 -14 15 -32 3 -17 8 -29 11 -26 2 2 -2 29 -9 59 -74 291
-108 484 -126 725 -15 199 -3 257 43 203 13 -15 25 -19 42 -15 21 5 24 2 30
-32 7 -43 39 -102 55 -102 6 0 10 37 10 93 0 84 12 230 26 317 9 62 -13 10
-28 -65 -20 -98 -60 -114 -97 -39 -8 16 -20 34 -27 41 -11 12 -29 75 -38 138
-2 17 -5 32 -6 35 -1 3 -8 -11 -15 -30 -13 -33 -13 -31 -8 40 3 41 11 111 19
155 7 43 12 80 11 82 -2 1 -26 -53 -55 -120z"/>
<path d="M3192 2715 c0 -16 2 -22 5 -12 2 9 2 23 0 30 -3 6 -5 -1 -5 -18z"/>
<path d="M2187 2457 c-20 -39 -61 -110 -90 -157 l-53 -85 -62 -7 c-112 -12
-266 -70 -301 -112 -8 -9 11 -1 42 17 68 42 170 76 250 84 68 7 67 11 8 -72
-130 -184 -515 -558 -544 -528 -4 3 -7 -5 -6 -18 0 -13 3 -18 6 -11 2 6 9 12
15 12 44 0 396 345 518 509 l84 112 46 -7 c25 -3 70 -14 100 -24 30 -10 56
-17 58 -15 6 6 -107 45 -148 51 -22 4 -40 9 -40 13 0 15 37 60 44 54 4 -4 4 1
0 11 -6 15 -4 17 7 11 8 -4 11 -5 7 0 -6 7 34 89 68 139 11 17 13 15 23 -20 6
-22 25 -104 42 -184 50 -240 50 -438 -2 -574 -10 -27 -16 -53 -13 -58 3 -4 1
-8 -4 -8 -6 0 -13 -8 -16 -17 -20 -51 116 112 179 215 24 40 42 59 48 53 5 -5
9 -49 10 -98 0 -69 -6 -105 -27 -166 -14 -42 -26 -79 -26 -81 0 -5 227 72 258
88 16 8 80 64 142 125 75 72 117 106 122 99 4 -8 11 -3 17 16 6 15 16 37 22
49 9 20 8 20 -13 -3 -13 -14 -32 -32 -43 -40 -16 -13 -15 -10 4 18 28 41 66
136 74 188 5 27 -2 16 -21 -37 -51 -142 -120 -239 -244 -347 -57 -49 -88 -67
-140 -83 -37 -11 -73 -17 -79 -13 -7 4 -9 3 -6 -3 4 -6 -10 -15 -33 -21 -38
-9 -39 -9 -28 11 35 66 47 195 28 296 -8 43 -6 65 11 127 11 41 18 80 16 87
-2 7 -10 -15 -16 -48 -18 -86 -88 -227 -160 -323 -35 -46 -65 -82 -66 -80 -2
2 8 36 21 76 49 146 47 319 -6 575 -18 83 -35 179 -39 214 l-6 63 -38 -73z"/>
<path d="M751 2404 c0 -11 3 -14 6 -6 3 7 2 16 -1 19 -3 4 -6 -2 -5 -13z"/>
<path d="M2532 2349 c-1 -42 -4 -98 -7 -125 l-4 -49 10 49 c5 26 8 82 6 125
l-3 76 -2 -76z"/>
<path d="M3187 2393 c-3 -10 -13 -57 -21 -104 -27 -145 -90 -298 -124 -300
-10 0 -12 -3 -5 -6 17 -6 -2 -51 -67 -152 -48 -76 -75 -108 -50 -60 7 11 9 23
7 26 -3 2 -21 -24 -41 -60 -20 -35 -45 -72 -56 -82 -34 -31 -22 -37 15 -8 39
31 109 128 175 243 24 41 44 77 46 78 6 8 72 -31 111 -66 31 -28 41 -44 41
-67 1 -47 -27 -357 -33 -385 -4 -14 9 9 29 50 l36 75 -1 -90 c0 -170 -18 -232
-141 -500 -40 -87 -71 -173 -93 -261 -37 -146 -47 -170 -99 -230 -54 -63 -137
-113 -292 -175 -163 -65 -249 -89 -325 -89 -78 0 -269 54 -373 106 -92 46
-109 46 -99 0 4 -17 1 -15 -16 9 -12 17 -19 35 -17 41 3 6 -9 21 -24 33 -35
25 -54 28 -24 3 11 -9 21 -21 22 -27 6 -24 66 -113 74 -109 5 3 8 2 7 -3 -2
-4 4 -20 11 -35 11 -23 16 -26 28 -15 13 10 14 9 5 -8 -12 -23 -6 -48 9 -39 6
4 9 1 6 -7 -3 -8 5 -30 16 -49 12 -19 30 -54 41 -78 12 -28 26 -44 42 -48 51
-13 109 48 81 85 -12 14 -11 14 5 2 15 -12 17 -11 18 5 6 87 4 93 -19 74 -8
-7 -9 -7 -3 1 11 13 3 39 -11 39 -6 0 -24 11 -40 25 -16 14 -35 22 -40 19 -7
-4 -8 -2 -4 4 5 8 -1 12 -14 12 -12 0 -18 5 -15 10 3 6 1 10 -4 10 -17 0 -13
-18 7 -30 14 -9 13 -10 -7 -4 -18 5 -22 3 -16 -7 6 -11 5 -12 -5 -2 -8 7 -15
23 -17 35 -2 18 -1 20 7 8 9 -14 15 -7 11 14 -2 9 44 -17 132 -77 51 -35 58
-43 53 -66 -5 -25 -5 -25 6 -4 6 13 17 23 25 23 9 0 5 -16 -16 -57 -16 -32
-32 -73 -36 -90 l-7 -33 296 1 c270 0 296 2 296 17 1 16 2 16 14 -1 14 -17 27
-23 25 -10 -4 25 4 42 21 48 15 5 20 16 22 48 l1 42 6 -40 c6 -41 46 -104 57
-92 4 4 -1 23 -11 42 -9 20 -14 39 -11 42 3 4 6 1 6 -5 0 -7 5 -12 11 -12 11
0 9 28 -6 62 -4 11 -3 18 4 18 6 0 10 -3 9 -7 0 -5 2 -16 7 -26 4 -9 5 -26 2
-37 -3 -11 -1 -20 4 -20 5 0 9 -7 9 -15 0 -8 5 -15 10 -15 6 0 10 -9 10 -20 0
-12 7 -20 16 -20 14 0 15 10 9 77 -7 82 9 333 25 394 6 20 16 42 24 48 12 10
13 5 5 -31 -15 -63 -14 -228 2 -263 19 -46 37 -117 33 -130 -3 -6 4 -31 14
-56 18 -42 19 -43 18 -12 -1 17 -4 29 -8 26 -5 -2 -8 3 -8 11 0 9 3 16 8 16
10 0 31 48 24 55 -3 3 -12 -9 -19 -26 -7 -18 -16 -30 -18 -27 -3 3 2 21 10 41
11 28 12 42 4 64 -44 114 -50 297 -15 440 13 54 29 124 36 156 11 53 18 65 83
129 82 80 186 163 194 155 5 -6 -22 -225 -37 -290 -5 -25 -5 -37 2 -35 10 4
63 102 102 189 l20 43 12 -35 c11 -31 12 -25 12 66 0 115 -6 154 -20 133 -7
-9 -11 -10 -14 -2 -7 17 -46 4 -40 -12 10 -25 -10 -15 -22 11 -6 14 -16 25
-22 25 -7 0 -7 -7 1 -22 9 -19 9 -21 -2 -10 -16 15 -33 16 -23 0 5 -7 3 -8 -6
-3 -10 6 -12 4 -7 -8 15 -37 19 -52 10 -42 -11 13 -56 18 -48 5 3 -6 -1 -10
-9 -10 -8 0 -24 -12 -35 -26 -12 -15 -21 -23 -21 -19 0 4 31 41 68 83 38 43
88 104 111 137 102 148 114 166 109 171 -3 3 -16 -10 -29 -28 -12 -18 -52 -66
-88 -106 -36 -41 -81 -90 -98 -110 l-33 -37 15 44 c22 65 46 263 44 371 -1
106 17 233 33 224 6 -4 5 2 -1 14 -6 11 -12 42 -13 69 -1 45 -2 46 -5 9 l-4
-38 -25 23 c-16 15 -24 33 -24 56 0 19 -7 80 -15 136 -30 214 -33 243 -23 301
8 57 5 87 -5 49z m6 -328 c9 -55 18 -115 20 -133 3 -31 3 -32 -17 -17 -12 8
-44 27 -73 42 l-51 26 31 63 c21 44 34 60 40 51 6 -8 7 -7 4 5 -8 22 15 93 24
76 4 -7 14 -58 22 -113z m72 -242 c16 -23 16 -34 6 -92 -7 -36 -23 -97 -37
-136 -13 -38 -21 -59 -18 -45 2 14 8 87 11 163 3 75 9 137 13 137 4 0 16 -12
25 -27z m155 -723 c0 -5 -4 -10 -10 -10 -5 0 -10 5 -10 10 0 6 5 10 10 10 6 0
10 -4 10 -10z m-180 -60 c0 -5 -2 -10 -4 -10 -3 0 -8 5 -11 10 -3 6 -1 10 4
10 6 0 11 -4 11 -10z m158 -21 c-3 -8 -7 -3 -11 10 -4 17 -3 21 5 13 5 -5 8
-16 6 -23z m-234 -39 c-6 -6 -10 -3 -10 10 0 13 4 16 10 10 7 -7 7 -13 0 -20z
m-1305 -624 c9 -10 8 -15 -2 -19 -8 -3 -13 3 -13 14 0 23 0 23 15 5z m1108
-63 c-2 -16 -4 -3 -4 27 0 30 2 43 4 28 2 -16 2 -40 0 -55z m-1038 21 c14 -12
-19 -1 -35 12 -18 14 -18 14 6 3 14 -6 27 -13 29 -15z m-52 -56 c-3 -8 -6 -5
-6 6 -1 11 2 17 5 13 3 -3 4 -12 1 -19z m950 -60 c-3 -8 -6 -5 -6 6 -1 11 2
17 5 13 3 -3 4 -12 1 -19z m183 -33 c11 -13 10 -14 -4 -9 -9 3 -16 10 -16 15
0 13 6 11 20 -6z m-1040 -20 c7 -9 8 -15 2 -15 -5 0 -12 7 -16 15 -3 8 -4 15
-2 15 2 0 9 -7 16 -15z m707 -17 c-3 -7 -5 -2 -5 12 0 14 2 19 5 13 2 -7 2
-19 0 -25z m-711 -33 c33 -77 29 -83 -6 -10 -33 66 -32 65 -24 65 3 0 16 -25
30 -55z m134 20 c0 -5 -5 -3 -10 5 -5 8 -10 20 -10 25 0 6 5 3 10 -5 5 -8 10
-19 10 -25z m-103 3 c-3 -8 -6 -5 -6 6 -1 11 2 17 5 13 3 -3 4 -12 1 -19z
m450 -20 c-3 -7 -5 -2 -5 12 0 14 2 19 5 13 2 -7 2 -19 0 -25z m30 10 c-3 -8
-6 -5 -6 6 -1 11 2 17 5 13 3 -3 4 -12 1 -19z m270 -30 c-3 -7 -5 -2 -5 12 0
14 2 19 5 13 2 -7 2 -19 0 -25z m-47 -7 c0 -6 -4 -13 -10 -16 -5 -3 -10 1 -10
9 0 9 5 16 10 16 6 0 10 -4 10 -9z m-58 -43 c-8 -8 -9 -4 -5 13 4 13 8 18 11
10 2 -7 -1 -18 -6 -23z m-562 12 c0 -5 -5 -10 -11 -10 -5 0 -7 5 -4 10 3 6 8
10 11 10 2 0 4 -4 4 -10z m437 -22 c-3 -8 -6 -5 -6 6 -1 11 2 17 5 13 3 -3 4
-12 1 -19z"/>
<path d="M3162 2060 c0 -14 2 -19 5 -12 2 6 2 18 0 25 -3 6 -5 1 -5 -13z"/>
<path d="M3141 2045 c1 -19 18 -51 18 -35 0 8 -4 22 -9 30 -5 8 -9 11 -9 5z"/>
<path d="M3157 1969 c4 -13 8 -18 11 -10 2 7 -1 18 -6 23 -8 8 -9 4 -5 -13z"/>
<path d="M3183 1945 c0 -8 4 -12 9 -9 5 3 6 10 3 15 -9 13 -12 11 -12 -6z"/>
<path d="M731 2299 c-6 -40 -10 -74 -7 -76 2 -2 9 28 16 67 7 39 10 73 8 76
-3 2 -10 -28 -17 -67z"/>
<path d="M563 2178 c4 -68 11 -136 16 -153 l9 -30 1 36 c1 39 31 76 53 64 7
-3 5 0 -4 8 -10 8 -15 17 -11 20 3 4 -1 7 -11 7 -9 0 -14 -4 -11 -10 3 -5 1
-18 -4 -27 -9 -15 -10 -13 -11 14 0 34 15 45 42 32 27 -14 75 9 81 39 6 33 1
40 -16 20 -35 -43 -87 -16 -107 57 -23 82 -33 53 -27 -77z"/>
<path d="M0 2140 c0 -35 2 -61 5 -58 8 7 9 108 1 115 -3 3 -6 -22 -6 -57z"/>
<path d="M2511 2154 c0 -11 3 -14 6 -6 3 7 2 16 -1 19 -3 4 -6 -2 -5 -13z"/>
<path d="M3577 1910 c-11 -135 -33 -265 -57 -334 -23 -69 -25 -81 -5 -45 19
35 52 164 60 235 3 32 9 72 12 88 l5 30 15 -28 c8 -15 17 -26 20 -23 2 3 -4
20 -13 39 -10 18 -21 56 -24 83 -5 46 -6 42 -13 -45z"/>
<path d="M3 1648 c1 -188 5 -251 13 -240 15 21 20 8 29 -67 l7 -65 -26 17 -26
17 0 -365 c0 -201 3 -365 6 -365 3 0 18 7 34 16 31 19 62 14 99 -13 35 -27 81
-75 81 -85 0 -5 8 -17 18 -28 10 -11 28 -47 41 -82 19 -53 24 -87 26 -208 2
-80 1 -134 -2 -121 l-5 25 -19 -25 -19 -24 0 25 c0 20 -2 22 -10 10 -5 -8 -10
-10 -10 -4 0 6 -11 28 -25 48 -14 20 -28 54 -31 76 -4 22 -10 37 -15 34 -5 -3
-9 6 -9 20 0 14 -4 28 -10 31 -5 3 -18 25 -28 48 -11 23 -29 52 -40 63 -14 15
-17 25 -10 32 7 7 3 14 -11 22 -19 9 -25 8 -40 -12 -17 -20 -19 -44 -20 -225
l-2 -203 125 0 c110 0 125 2 129 18 4 14 5 14 7 -3 l1 -20 9 20 c7 17 9 17 9
3 1 -28 30 -21 38 9 16 58 6 284 -16 367 -12 44 -21 87 -21 97 0 17 40 69 53
69 14 0 37 -34 37 -56 0 -25 7 -29 27 -16 9 6 10 17 3 41 -5 19 -7 37 -5 42 3
4 1 10 -5 14 -5 3 -10 17 -10 30 0 22 -3 24 -29 19 -23 -5 -29 -2 -34 15 -3
12 -13 21 -24 21 -38 0 -81 70 -114 185 -22 75 -24 58 -4 -31 9 -36 14 -68 12
-71 -5 -4 -73 272 -96 382 -36 180 -70 467 -75 633 -7 223 -16 140 -13 -120z
m85 -608 l0 -45 -9 40 c-4 22 -8 54 -7 70 0 29 0 29 8 5 4 -14 8 -45 8 -70z"/>
<path d="M3174 1850 c0 -13 4 -16 10 -10 7 7 7 13 0 20 -6 6 -10 3 -10 -10z"/>
<path d="M354 1740 c5 -136 24 -272 37 -264 4 2 6 -10 5 -28 -2 -18 -1 -24 1
-13 3 11 10 26 15 33 7 8 7 16 1 25 -22 27 -21 70 3 108 21 34 22 40 10 64
-10 18 -16 22 -20 13 -3 -7 -4 -3 -1 8 3 12 -8 57 -25 100 l-31 79 5 -125z"/>
<path d="M2055 1831 c17 -10 45 -35 63 -55 31 -34 54 -44 37 -16 -11 18 -106
90 -118 90 -7 0 2 -8 18 -19z"/>
<path d="M2000 1808 c-14 -5 -61 -9 -105 -9 -123 3 -239 -46 -309 -130 -90
-106 -131 -306 -76 -369 10 -11 19 -20 21 -20 2 0 4 37 4 83 0 78 2 86 33 133
19 27 31 40 27 29 -14 -39 -17 -152 -6 -203 21 -98 79 -192 118 -192 13 0 10
7 -15 29 -29 27 -44 49 -24 37 5 -3 16 10 25 29 32 68 160 101 204 53 12 -13
25 -39 30 -58 l10 -35 20 40 c35 67 53 145 53 226 0 111 -34 179 -108 219
l-37 19 56 1 c69 0 138 -32 208 -98 48 -45 50 -46 50 -22 -1 30 -39 120 -50
120 -5 0 -13 10 -20 21 -9 17 -8 23 2 30 10 6 6 9 -13 9 -15 0 -43 8 -63 17
l-36 17 23 18 c25 19 16 22 -22 6z m-280 -172 c0 -2 -12 -11 -27 -20 l-28 -17
24 20 c23 21 31 25 31 17z m-30 -66 c18 0 17 -53 -1 -71 -23 -23 -42 -24 -63
-3 -22 21 -20 41 7 73 18 23 24 25 35 14 7 -7 17 -13 22 -13z m50 -120 c0 -5
-4 -10 -10 -10 -5 0 -10 5 -10 10 0 6 5 10 10 10 6 0 10 -4 10 -10z"/>
<path d="M3320 1740 c0 -5 5 -10 11 -10 5 0 7 5 4 10 -3 6 -8 10 -11 10 -2 0
-4 -4 -4 -10z"/>
<path d="M2883 1603 c9 -2 23 -2 30 0 6 3 -1 5 -18 5 -16 0 -22 -2 -12 -5z"/>
<path d="M2973 1550 c-71 -8 -152 -39 -176 -69 -10 -12 -9 -13 3 -6 8 4 4 -4
-10 -19 l-25 -28 29 8 29 7 -21 -29 c-23 -31 -66 -139 -88 -219 -21 -78 -18
-168 7 -196 l20 -24 -11 23 c-6 12 -10 46 -8 75 l3 52 55 -3 c71 -5 109 -25
117 -62 3 -17 9 -30 13 -30 15 0 70 138 86 215 19 93 15 167 -12 196 -19 22
-19 22 6 14 52 -15 86 -42 108 -85 34 -65 27 -182 -16 -275 -36 -76 -25 -87
18 -17 16 26 34 52 39 58 5 6 15 31 22 55 7 24 18 49 25 55 8 6 11 14 8 17 -3
3 -8 35 -9 71 -4 63 -31 136 -56 152 -8 4 1 14 22 25 l34 19 -42 -6 c-44 -7
-107 11 -97 27 3 5 4 8 2 8 -2 -1 -35 -5 -75 -9z m-107 -155 c8 -31 -10 -55
-41 -55 -30 0 -39 27 -20 56 21 32 53 31 61 -1z m4 -85 c0 -5 -4 -10 -10 -10
-5 0 -10 5 -10 10 0 6 5 10 10 10 6 0 10 -4 10 -10z"/>
<path d="M1432 1430 c0 -14 2 -19 5 -12 2 6 2 18 0 25 -3 6 -5 1 -5 -13z"/>
<path d="M400 1384 c0 -10 5 -26 10 -34 8 -11 9 -7 4 15 -8 37 -14 45 -14 19z"/>
<path d="M421 1294 c0 -11 3 -14 6 -6 3 7 2 16 -1 19 -3 4 -6 -2 -5 -13z"/>
<path d="M95 1240 c3 -19 10 -39 15 -44 7 -7 7 -1 1 19 -17 54 -21 61 -16 25z"/>
<path d="M1071 1225 c-2 -69 20 -257 40 -342 34 -147 149 -411 176 -406 6 1
17 -5 25 -15 12 -15 11 -16 -4 -3 -58 45 43 -94 137 -189 64 -64 89 -82 298
-205 97 -57 135 -74 90 -39 -10 7 -13 14 -6 14 6 0 18 -8 25 -19 9 -13 25 -18
49 -18 35 1 36 2 28 29 -7 27 -79 165 -104 200 -6 10 -15 15 -20 10 -5 -4 -5
-1 -1 6 5 8 0 22 -11 35 -10 12 -34 46 -53 74 -19 29 -41 53 -47 53 -19 0 -16
-6 14 -34 15 -14 24 -28 21 -32 -12 -12 -51 35 -54 67 -4 28 -2 30 13 18 15
-13 15 -12 4 9 -15 28 -19 26 -31 -17 -5 -19 -5 -31 1 -31 5 0 9 -5 9 -11 0
-5 -4 -7 -10 -4 -6 4 -7 -1 -3 -11 4 -12 3 -15 -5 -10 -7 4 -12 14 -12 22 0 8
-7 26 -16 40 -9 13 -14 27 -11 31 3 3 0 12 -8 20 -8 8 -15 19 -15 24 0 15 20
10 26 -6 4 -8 10 -12 15 -9 5 3 9 -2 9 -12 0 -14 3 -14 16 -4 13 12 12 16 -13
40 -15 14 -30 25 -32 23 -3 -2 -18 9 -34 24 -25 23 -29 24 -23 8 5 -11 15 -42
23 -70 29 -96 114 -240 233 -396 17 -23 18 -28 5 -33 -9 -3 -14 -2 -11 3 4 5
-26 46 -65 91 -127 148 -192 264 -279 501 -27 74 -49 130 -50 124 0 -16 57
-236 74 -284 9 -24 13 -47 10 -50 -3 -3 -31 21 -60 54 -30 33 -59 59 -64 57
-6 -1 -9 1 -9 5 3 18 -2 30 -19 49 -55 60 -153 256 -205 412 -19 56 -38 98
-42 94 -5 -4 -6 -2 -3 3 3 6 0 42 -7 80 -11 57 -13 63 -14 30z m36 -187 c-3
-8 -6 -5 -6 6 -1 11 2 17 5 13 3 -3 4 -12 1 -19z m625 -745 c-2 -7 1 -13 7
-13 6 0 11 5 11 10 0 6 5 10 10 10 6 0 10 -7 10 -16 0 -8 5 -12 10 -9 15 9 12
-11 -3 -24 -16 -13 -15 -37 1 -68 7 -13 9 -23 5 -23 -11 0 -111 151 -114 170
-4 37 3 38 34 8 18 -18 31 -39 29 -45z m23 27 c3 -6 -1 -7 -9 -4 -18 7 -21 14
-7 14 6 0 13 -4 16 -10z m40 -110 c3 -5 1 -10 -4 -10 -6 0 -11 5 -11 10 0 6 2
10 4 10 3 0 8 -4 11 -10z m48 -43 c8 5 8 2 0 -9 -7 -8 -9 -19 -5 -23 4 -5 2
-6 -3 -2 -6 3 -11 20 -12 39 0 20 1 24 4 10 3 -14 9 -20 16 -15z m-1 -51 c7 5
9 0 5 -15 -3 -13 -3 -20 0 -17 3 3 19 -11 34 -31 16 -20 29 -31 29 -25 0 6 -5
14 -10 17 -6 4 -7 11 -4 17 4 6 2 8 -4 4 -14 -9 -23 7 -12 23 10 18 44 -44 36
-65 -11 -28 -31 -13 -78 61 -7 10 -22 26 -32 35 -12 11 -16 22 -11 30 6 9 12
6 22 -14 8 -15 19 -24 25 -20z m30 -10 c-3 -5 -9 -1 -13 10 -12 31 -10 39 5
19 8 -11 12 -24 8 -29z m-88 -32 c3 -8 2 -12 -4 -9 -6 3 -10 10 -10 16 0 14 7
11 14 -7z"/>
<path d="M1691 308 c18 -34 48 -60 62 -53 6 4 5 0 -4 -7 -15 -12 -15 -15 -1
-28 14 -13 15 -12 10 2 -4 8 -2 20 4 26 12 12 1 35 -12 27 -14 -9 -39 6 -34
20 3 7 -4 19 -16 25 -20 11 -21 10 -9 -12z"/>
<path d="M3558 1187 l-27 -52 29 35 c17 19 30 42 30 52 0 10 -1 18 -2 18 -2 0
-15 -24 -30 -53z"/>
<path d="M115 1161 c-3 -10 -2 -28 3 -41 7 -20 10 -21 15 -7 4 10 2 17 -4 17
-7 0 -9 10 -5 25 7 29 0 34 -9 6z"/>
<path d="M1890 1155 c-13 -14 -19 -25 -14 -25 12 0 26 11 43 33 21 26 -2 20
-29 -8z"/>
<path d="M3345 1169 c-4 -6 -5 -12 -2 -15 2 -3 7 2 10 11 7 17 1 20 -8 4z"/>
<path d="M3250 1100 c0 -5 5 -10 10 -10 6 0 10 5 10 10 0 6 -4 10 -10 10 -5 0
-10 -4 -10 -10z"/>
<path d="M3481 1094 c0 -11 3 -14 6 -6 3 7 2 16 -1 19 -3 4 -6 -2 -5 -13z"/>
<path d="M131 1044 c0 -11 3 -14 6 -6 3 7 2 16 -1 19 -3 4 -6 -2 -5 -13z"/>
<path d="M625 1030 c-4 -6 -13 -9 -21 -6 -8 3 -14 1 -14 -4 0 -6 6 -10 13 -10
18 0 43 18 35 25 -3 4 -9 1 -13 -5z"/>
<path d="M141 1004 c0 -11 3 -14 6 -6 3 7 2 16 -1 19 -3 4 -6 -2 -5 -13z"/>
<path d="M2852 989 c-19 -17 -32 -32 -30 -35 7 -6 71 39 76 54 6 20 -11 13
-46 -19z"/>
<path d="M152 950 c0 -19 2 -27 5 -17 2 9 2 25 0 35 -3 9 -5 1 -5 -18z"/>
<path d="M916 662 c11 -253 56 -422 147 -549 23 -33 44 -48 86 -64 31 -11 66
-27 79 -35 38 -25 24 -6 -19 26 -23 16 -46 27 -52 23 -5 -3 -7 -1 -3 5 3 5
-16 37 -44 69 -27 32 -64 85 -82 118 -37 68 -85 255 -99 385 -14 129 -18 136
-13 22z"/>
<path d="M304 736 c-5 -12 -3 -21 4 -24 6 -2 8 -11 5 -20 -6 -14 -5 -15 9 -2
9 9 12 18 6 21 -5 3 -9 9 -8 13 1 4 -1 12 -3 19 -3 7 -8 5 -13 -7z"/>
<path d="M267 709 c7 -7 15 -10 18 -7 3 3 -2 9 -12 12 -14 6 -15 5 -6 -5z"/>
<path d="M3491 704 c0 -11 3 -14 6 -6 3 7 2 16 -1 19 -3 4 -6 -2 -5 -13z"/>
<path d="M2160 615 c0 -6 56 -35 67 -35 4 0 -7 9 -25 20 -33 20 -42 24 -42 15z"/>
<path d="M2370 580 c-13 -8 -12 -10 3 -10 9 0 17 5 17 10 0 12 -1 12 -20 0z"/>
<path d="M3462 510 c0 -14 2 -19 5 -12 2 6 2 18 0 25 -3 6 -5 1 -5 -13z"/>
<path d="M3176 495 c-9 -26 -7 -32 5 -12 6 10 9 21 6 23 -2 3 -7 -2 -11 -11z"/>
<path d="M3492 470 c0 -19 2 -27 5 -17 2 9 2 25 0 35 -3 9 -5 1 -5 -18z"/>
<path d="M1 478 c-1 -10 5 -18 13 -18 17 0 31 18 21 28 -3 3 -10 0 -14 -7 -7
-11 -10 -11 -14 0 -4 10 -6 9 -6 -3z"/>
<path d="M1636 415 c4 -8 8 -15 10 -15 2 0 4 7 4 15 0 8 -4 15 -10 15 -5 0 -7
-7 -4 -15z"/>
<path d="M3151 414 c0 -11 3 -14 6 -6 3 7 2 16 -1 19 -3 4 -6 -2 -5 -13z"/>
<path d="M1804 389 c-3 -6 -1 -16 5 -22 8 -8 11 -5 11 11 0 24 -5 28 -16 11z"/>
<path d="M3131 344 c0 -11 3 -14 6 -6 3 7 2 16 -1 19 -3 4 -6 -2 -5 -13z"/>
<path d="M3111 244 c0 -11 3 -14 6 -6 3 7 2 16 -1 19 -3 4 -6 -2 -5 -13z"/>
<path d="M1308 163 c22 -29 55 -78 72 -108 27 -47 50 -70 50 -49 0 13 -102
152 -131 180 -28 25 -27 22 9 -23z"/>
<path d="M3103 165 c0 -22 2 -30 4 -17 2 12 2 30 0 40 -3 9 -5 -1 -4 -23z"/>
<path d="M3047 97 c-3 -8 1 -14 8 -14 7 0 11 6 8 14 -3 7 -6 13 -8 13 -2 0 -5
-6 -8 -13z"/>
<path d="M3446 65 c-3 -9 -6 -22 -5 -28 0 -7 5 -1 10 12 5 13 8 26 5 28 -2 2
-6 -3 -10 -12z"/>
<path d="M956 11 c-17 -3 36 -6 117 -6 82 0 140 2 130 6 -23 8 -209 9 -247 0z"/>
</g>
</svg>
